<svg width="42" height="43" viewBox="0 0 42 43" fill="none" xmlns="http://www.w3.org/2000/svg">
<path fill-rule="evenodd" clip-rule="evenodd" d="M21 3.58334C11.34 3.58334 3.5 11.61 3.5 21.5C3.5 31.39 11.34 39.4167 21 39.4167C30.66 39.4167 38.5 31.39 38.5 21.5C38.5 11.61 30.66 3.58334 21 3.58334ZM12.3725 32.7517C13.125 31.1392 17.71 29.5625 21 29.5625C24.29 29.5625 28.8925 31.1392 29.6275 32.7517C27.2475 34.6867 24.255 35.8333 21 35.8333C17.745 35.8333 14.7525 34.6867 12.3725 32.7517ZM21 25.9792C23.555 25.9792 29.6275 27.0363 32.13 30.1538C33.915 27.7529 35 24.7608 35 21.5C35 13.5988 28.7175 7.16668 21 7.16668C13.2825 7.16668 7 13.5988 7 21.5C7 24.7608 8.085 27.7529 9.87 30.1538C12.3725 27.0363 18.445 25.9792 21 25.9792ZM21 10.75C17.605 10.75 14.875 13.545 14.875 17.0208C14.875 20.4967 17.605 23.2917 21 23.2917C24.395 23.2917 27.125 20.4967 27.125 17.0208C27.125 13.545 24.395 10.75 21 10.75ZM18.375 17.0208C18.375 18.5079 19.5475 19.7083 21 19.7083C22.4525 19.7083 23.625 18.5079 23.625 17.0208C23.625 15.5338 22.4525 14.3333 21 14.3333C19.5475 14.3333 18.375 15.5338 18.375 17.0208Z" fill="#55CB95" fill-opacity="0.54"/>
</svg>
