<svg width="44" height="44" viewBox="0 0 44 44" fill="none" xmlns="http://www.w3.org/2000/svg">
<path fill-rule="evenodd" clip-rule="evenodd" d="M36.2174 5.434C36.0218 5.434 35.8262 5.39 35.655 5.302C30.9608 3.124 26.9021 2.2 22.0367 2.2C17.1957 2.2 12.5992 3.234 8.41837 5.302C7.83158 5.588 7.09809 5.39 6.7558 4.862C6.43796 4.334 6.658 3.652 7.24479 3.366C11.7924 1.144 16.7801 0 22.0367 0C27.2444 0 31.792 1.034 36.7797 3.344C37.391 3.63 37.611 4.29 37.2932 4.818C37.0731 5.214 36.6575 5.434 36.2174 5.434ZM1.2302 16.984C0.985701 16.984 0.741206 16.918 0.521161 16.786C-0.0411759 16.434 -0.163423 15.752 0.227768 15.246C2.64826 12.166 5.72889 9.746 9.39631 8.052C17.0734 4.488 26.9021 4.466 34.6037 8.03C38.2711 9.724 41.3517 12.122 43.7722 15.18C44.1634 15.664 44.0412 16.368 43.4788 16.72C42.9165 17.072 42.1586 16.962 41.7674 16.456C39.5669 13.684 36.7797 11.506 33.479 9.988C26.462 6.754 17.4891 6.754 10.4965 10.01C7.17141 11.55 4.38417 13.75 2.18372 16.522C1.98813 16.83 1.62139 16.984 1.2302 16.984ZM15.6554 43.208C15.8755 43.428 16.1933 43.538 16.5112 43.538C16.829 43.538 17.1468 43.428 17.4158 43.208C17.8803 42.768 17.8803 42.086 17.4158 41.646C15.5332 39.93 14.4574 38.852 12.8926 36.322C11.4012 33.946 10.6188 31.02 10.6188 27.852C10.6188 22.528 15.7288 18.194 22.0123 18.194C28.2958 18.194 33.4057 22.528 33.4057 27.852C33.4057 28.468 33.9436 28.952 34.6282 28.952C35.3128 28.952 35.8507 28.468 35.8507 27.852C35.8507 21.318 29.6405 15.994 22.0123 15.994C14.384 15.994 8.17389 21.318 8.17389 27.852C8.17389 31.394 9.05407 34.694 10.7411 37.4C12.3792 40.062 13.5283 41.294 15.6554 43.208ZM34.0413 39.468C31.1318 39.468 28.5646 38.808 26.462 37.51C22.819 35.288 20.643 31.68 20.643 27.852C20.643 27.236 21.1809 26.752 21.8655 26.752C22.5501 26.752 23.0879 27.236 23.0879 27.852C23.0879 30.954 24.8483 33.88 27.8311 35.684C29.5671 36.74 31.5964 37.246 34.0413 37.246C34.6281 37.246 35.6061 37.18 36.584 37.026C37.2442 36.916 37.8799 37.312 38.0021 37.928C38.1244 38.522 37.6843 39.094 36.9997 39.204C35.6061 39.446 34.3836 39.468 34.0413 39.468ZM28.8092 43.956C28.907 43.978 29.0292 44 29.127 44C29.6405 44 30.1539 43.67 30.2762 43.164C30.4473 42.592 30.0806 41.976 29.4204 41.822C25.9731 40.964 23.7482 39.82 21.4255 37.752C18.4671 35.112 16.8534 31.592 16.8534 27.83C16.8534 25.476 19.1272 23.562 21.9389 23.562C24.7506 23.562 27.0244 25.476 27.0244 27.83C27.0244 31.394 30.3984 34.298 34.5548 34.298C38.7112 34.298 42.0852 31.394 42.0852 27.83C42.0852 18.326 33.0389 10.604 21.9144 10.604C14.0173 10.604 6.80469 14.586 3.55291 20.724C2.45269 22.814 1.89035 25.212 1.89035 27.852C1.89035 30.822 2.47714 33.682 3.67516 36.564C3.89521 37.114 4.60424 37.422 5.23992 37.202C5.87561 37.004 6.19345 36.366 5.94896 35.794C4.48199 32.274 4.31085 29.568 4.31085 27.852C4.31085 25.564 4.79983 23.474 5.75336 21.692C8.61395 16.302 14.9708 12.826 21.9144 12.826C31.6942 12.826 39.6403 19.558 39.6403 27.852C39.6403 30.206 37.3665 32.12 34.5548 32.12C31.7431 32.12 29.4693 30.206 29.4693 27.852C29.4693 24.288 26.0953 21.384 21.9389 21.384C17.7825 21.384 14.4085 24.288 14.4085 27.852C14.4085 32.208 16.2911 36.278 19.714 39.336C22.379 41.69 24.9217 42.988 28.8092 43.956Z" fill="#010101"/>
</svg>
