<svg width="43" height="41" viewBox="0 0 43 41" fill="none" xmlns="http://www.w3.org/2000/svg">
<g id="directions_car_24px">
<path id="icon/maps/directions_car_24px" fill-rule="evenodd" clip-rule="evenodd" d="M33.8983 8.55875C33.54 7.55083 32.5367 6.83333 31.3542 6.83333H11.6458C10.4633 6.83333 9.47792 7.55083 9.10167 8.55875L5.375 18.7917V32.4583C5.375 33.3979 6.18125 34.1667 7.16667 34.1667H8.95833C9.94375 34.1667 10.75 33.3979 10.75 32.4583V30.75H32.25V32.4583C32.25 33.3979 33.0562 34.1667 34.0417 34.1667H35.8333C36.8187 34.1667 37.625 33.3979 37.625 32.4583V18.7917L33.8983 8.55875ZM12.2729 10.25H30.7092L32.6442 15.5629H10.3379L12.2729 10.25ZM8.95833 27.3333H34.0417V18.7917H8.95833V27.3333ZM13.4375 20.5C11.9532 20.5 10.75 21.6473 10.75 23.0625C10.75 24.4777 11.9532 25.625 13.4375 25.625C14.9218 25.625 16.125 24.4777 16.125 23.0625C16.125 21.6473 14.9218 20.5 13.4375 20.5ZM26.875 23.0625C26.875 21.6473 28.0782 20.5 29.5625 20.5C31.0468 20.5 32.25 21.6473 32.25 23.0625C32.25 24.4777 31.0468 25.625 29.5625 25.625C28.0782 25.625 26.875 24.4777 26.875 23.0625Z" fill="#010101"/>
</g>
</svg>
