<svg width="44" height="44" viewBox="0 0 44 44" fill="none" xmlns="http://www.w3.org/2000/svg">
<g id="monetization_on_24px">
<path id="icon/editor/monetization_on_24px" fill-rule="evenodd" clip-rule="evenodd" d="M22 3.66667C11.88 3.66667 3.66666 11.88 3.66666 22C3.66666 32.12 11.88 40.3333 22 40.3333C32.12 40.3333 40.3333 32.12 40.3333 22C40.3333 11.88 32.12 3.66667 22 3.66667ZM22 36.6667C13.915 36.6667 7.33332 30.085 7.33332 22C7.33332 13.915 13.915 7.33333 22 7.33333C30.085 7.33333 36.6667 13.915 36.6667 22C36.6667 30.085 30.085 36.6667 22 36.6667ZM18.2783 17.3617C18.2783 18.7 19.3233 19.5983 22.5683 20.4233C25.795 21.2667 29.26 22.66 29.2783 26.6933C29.26 29.645 27.06 31.24 24.2733 31.7717V34.8333H19.9833V31.7167C17.2333 31.1483 14.9233 29.3883 14.74 26.2717H17.8933C18.0583 27.9583 19.2133 29.2783 22.1467 29.2783C25.2817 29.2783 25.9967 27.7017 25.9967 26.73C25.9967 25.41 25.2817 24.145 21.7067 23.3017C17.7283 22.3483 14.9967 20.6983 14.9967 17.4167C14.9967 14.6483 17.215 12.8517 19.9833 12.265V9.16667H24.255V12.3017C27.225 13.035 28.7283 15.29 28.82 17.7467H25.685C25.6117 15.95 24.6583 14.74 22.1283 14.74C19.7267 14.74 18.2783 15.8217 18.2783 17.3617Z" fill="#010101"/>
</g>
</svg>
