<svg width="36" height="30" viewBox="0 0 36 30" fill="none" xmlns="http://www.w3.org/2000/svg">
<path fill-rule="evenodd" clip-rule="evenodd" d="M5.5 15C5.5 6.71667 12.2167 0 20.5 0C28.7833 0 35.5 6.71667 35.5 15C35.5 23.2833 28.7833 30 20.5 30C16.35 30 12.6167 28.3167 9.9 25.6L12.2667 23.2333C14.3667 25.35 17.2833 26.6667 20.5 26.6667C26.95 26.6667 32.1667 21.45 32.1667 15C32.1667 8.55 26.95 3.33333 20.5 3.33333C14.05 3.33333 8.83333 8.55 8.83333 15H13.8333L7.1 21.7167L6.98333 21.4833L0.5 15H5.5ZM18.8333 16.6667V8.33333H21.3333V15.25L27.2 18.7333L25.9167 20.8667L18.8333 16.6667Z" fill="black" fill-opacity="0.54"/>
</svg>
