<svg width="42" height="37" viewBox="0 0 42 37" fill="none" xmlns="http://www.w3.org/2000/svg">
<g id="data_usage_24px">
<path id="icon/device/data_usage_24px" fill-rule="evenodd" clip-rule="evenodd" d="M8.75 18.4615C8.75 24.4277 14.2275 29.2531 21 29.2531C24.8675 29.2531 28.2975 27.6806 30.5375 25.214L35.0875 27.5727C31.9025 31.396 26.775 33.8781 20.9825 33.8781C11.3225 33.8781 3.5 26.9715 3.5 18.4615C3.5 10.4602 10.395 3.89271 19.25 3.12187V7.79312C13.3175 8.54854 8.75 13.0194 8.75 18.4615ZM22.75 7.79312V3.12187C31.5875 3.89271 38.5 10.4756 38.5 18.4615C38.5 20.6969 37.94 22.8244 36.96 24.736L32.41 22.3773C32.935 21.1594 33.25 19.849 33.25 18.4615C33.25 13.0194 28.6825 8.54854 22.75 7.79312Z" fill="black" fill-opacity="0.54"/>
</g>
</svg>
