<svg width="29" height="29" viewBox="0 0 29 29" fill="none" xmlns="http://www.w3.org/2000/svg">
<path fill-rule="evenodd" clip-rule="evenodd" d="M26.8333 0.625H2.16667C1.31875 0.625 0.625 1.31875 0.625 2.16667V11.4167C0.625 12.2646 1.31875 12.9583 2.16667 12.9583H26.8333C27.6812 12.9583 28.375 12.2646 28.375 11.4167V2.16667C28.375 1.31875 27.6812 0.625 26.8333 0.625ZM3.70833 9.875H25.2917V3.70833H3.70833V9.875ZM2.16667 16.0417H26.8333C27.6812 16.0417 28.375 16.7354 28.375 17.5833V26.8333C28.375 27.6812 27.6812 28.375 26.8333 28.375H2.16667C1.31875 28.375 0.625 27.6812 0.625 26.8333V17.5833C0.625 16.7354 1.31875 16.0417 2.16667 16.0417ZM25.2917 25.2917V19.125H3.70833V25.2917H25.2917ZM6.79167 24.5208C5.5275 24.5208 4.47917 23.4879 4.47917 22.2083C4.47917 20.9287 5.5275 19.8958 6.79167 19.8958C8.05583 19.8958 9.10417 20.9287 9.10417 22.2083C9.10417 23.4879 8.07125 24.5208 6.79167 24.5208ZM4.47917 6.79167C4.47917 8.07125 5.5275 9.10417 6.79167 9.10417C8.07125 9.10417 9.10417 8.05583 9.10417 6.79167C9.10417 5.5275 8.05583 4.47917 6.79167 4.47917C5.5275 4.47917 4.47917 5.51208 4.47917 6.79167Z" fill="black" fill-opacity="0.54"/>
</svg>
