<svg width="50" height="44" viewBox="0 0 50 44" fill="none" xmlns="http://www.w3.org/2000/svg">
<g id="drag_indicator_24px">
<path id="icon/action/drag_indicator_24px" fill-rule="evenodd" clip-rule="evenodd" d="M18.75 7.33333C16.4583 7.33333 14.5833 8.98333 14.5833 11C14.5833 13.0167 16.4583 14.6667 18.75 14.6667C21.0416 14.6667 22.9166 13.0167 22.9166 11C22.9166 8.98333 21.0416 7.33333 18.75 7.33333ZM14.5833 22C14.5833 19.9833 16.4583 18.3333 18.75 18.3333C21.0416 18.3333 22.9166 19.9833 22.9166 22C22.9166 24.0167 21.0416 25.6667 18.75 25.6667C16.4583 25.6667 14.5833 24.0167 14.5833 22ZM18.75 36.6667C21.0416 36.6667 22.9166 35.0167 22.9166 33C22.9166 30.9833 21.0416 29.3333 18.75 29.3333C16.4583 29.3333 14.5833 30.9833 14.5833 33C14.5833 35.0167 16.4583 36.6667 18.75 36.6667ZM35.4166 11C35.4166 13.0167 33.5416 14.6667 31.25 14.6667C28.9583 14.6667 27.0833 13.0167 27.0833 11C27.0833 8.98333 28.9583 7.33333 31.25 7.33333C33.5416 7.33333 35.4166 8.98333 35.4166 11ZM31.25 18.3333C28.9583 18.3333 27.0833 19.9833 27.0833 22C27.0833 24.0167 28.9583 25.6667 31.25 25.6667C33.5416 25.6667 35.4166 24.0167 35.4166 22C35.4166 19.9833 33.5416 18.3333 31.25 18.3333ZM27.0833 33C27.0833 30.9833 28.9583 29.3333 31.25 29.3333C33.5416 29.3333 35.4166 30.9833 35.4166 33C35.4166 35.0167 33.5416 36.6667 31.25 36.6667C28.9583 36.6667 27.0833 35.0167 27.0833 33Z" fill="#010101"/>
</g>
</svg>
