<svg width="96" height="95" viewBox="0 0 96 95" fill="none" xmlns="http://www.w3.org/2000/svg">
<path d="M48 83.125C67.8823 83.125 84 67.1751 84 47.5C84 27.8249 67.8823 11.875 48 11.875C28.1177 11.875 12 27.8249 12 47.5C12 67.1751 28.1177 83.125 48 83.125Z" stroke="black" stroke-width="2" stroke-miterlimit="10"/>
<path d="M48 59.375C56.2843 59.375 63 52.7292 63 44.5312C63 36.3333 56.2843 29.6875 48 29.6875C39.7157 29.6875 33 36.3333 33 44.5312C33 52.7292 39.7157 59.375 48 59.375Z" stroke="black" stroke-width="2" stroke-miterlimit="10"/>
<path d="M23.9246 73.9865C26.1844 69.5898 29.6296 65.8977 33.8788 63.3188C38.1279 60.74 43.0153 59.375 47.9999 59.375C52.9846 59.375 57.872 60.7399 62.1212 63.3188C66.3703 65.8976 69.8155 69.5897 72.0753 73.9864" stroke="black" stroke-width="2" stroke-linecap="round" stroke-linejoin="round"/>
</svg>
