<svg width="42" height="32" viewBox="0 0 42 32" fill="none" xmlns="http://www.w3.org/2000/svg">
<path fill-rule="evenodd" clip-rule="evenodd" d="M41.1667 28.25C41.1667 30.183 39.525 31.75 37.5 31.75H15.5C13.475 31.75 11.8333 30.183 11.8333 28.25V3.75C11.8333 1.817 13.475 0.25 15.5 0.25H37.5C39.525 0.25 41.1667 1.817 41.1667 3.75V28.25ZM10 30C7.97495 30 6.33333 28.433 6.33333 26.5V5.5C6.33333 3.567 7.97495 2 10 2V30ZM0.833332 24.75C0.833332 26.683 2.47495 28.25 4.5 28.25V3.75C2.47495 3.75 0.833332 5.317 0.833332 7.25V24.75ZM15.5 28.25H37.5V3.75H15.5V28.25ZM30.1667 16L22.8333 10.75V21.25L30.1667 16Z" fill="#55CB95"/>
</svg>
